/* XPM */
static char *rsz_floor1676280851[] = {
/* columns rows colors chars-per-pixel */
"16 16 181 2 ",
"   c #88330A",
".  c #6D2908",
"X  c #853308",
"o  c #93380A",
"O  c #7B2F09",
"+  c #86330A",
"@  c #90380C",
"#  c #82330C",
"$  c #7D2F09",
"%  c #8A3409",
"&  c #8E350B",
"*  c #752C07",
"=  c #8B350A",
"-  c #963909",
";  c #792E08",
":  c #7E3009",
">  c #93380B",
",  c #6B2908",
"<  c #89340A",
"1  c #923709",
"2  c #7D300A",
"3  c #84320A",
"4  c #8E380C",
"5  c #82330B",
"6  c #662607",
"7  c #752C08",
"8  c #702A08",
"9  c #682606",
"0  c #963908",
"q  c #8E360A",
"w  c #923809",
"e  c #752D09",
"r  c #883308",
"t  c #8E3407",
"y  c #7F3008",
"u  c #84330B",
"i  c #782D09",
"p  c #7D2F08",
"a  c #833109",
"s  c #943809",
"d  c #7A2F0A",
"f  c #8D3609",
"g  c #843107",
"h  c #8E3307",
"j  c #823008",
"k  c #863209",
"l  c #86330B",
"z  c #823009",
"x  c #93370A",
"c  c #923609",
"v  c #833108",
"b  c #823108",
"n  c #933608",
"m  c #7E300A",
"M  c #8F3709",
"N  c #8E3608",
"B  c #7E3109",
"V  c #94370A",
"C  c #873209",
"Z  c #843109",
"A  c #96390A",
"S  c #88340B",
"D  c #82310B",
"F  c #91370B",
"G  c #8F3509",
"H  c #843209",
"J  c #923608",
"K  c #81310A",
"L  c #8D360A",
"P  c #923808",
"I  c #782E09",
"U  c #752C09",
"Y  c #792E0A",
"T  c #712B09",
"R  c #853209",
"E  c #953A0B",
"W  c #89350C",
"Q  c #7F310A",
"!  c #903709",
"~  c #913609",
"^  c #883409",
"/  c #903509",
"(  c #82310A",
")  c #8A350A",
"_  c #96390B",
"`  c #813108",
"'  c #7B2E09",
"]  c #782D07",
"[  c #953A0C",
"{  c #7B2F0A",
"}  c #8F3608",
"|  c #873409",
" . c #85320A",
".. c #913509",
"X. c #823109",
"o. c #90370B",
"O. c #873308",
"+. c #803007",
"@. c #85330A",
"#. c #93380C",
"$. c #7C2F0A",
"%. c #893409",
"&. c #973A0B",
"*. c #7E2F09",
"=. c #8F360A",
"-. c #923708",
";. c #87330A",
":. c #7B2E06",
">. c #883309",
",. c #90370C",
"<. c #983A0B",
"1. c #7E2F08",
"2. c #913709",
"3. c #7B2E08",
"4. c #90360A",
"5. c #742C09",
"6. c #6B2808",
"7. c #92380A",
"8. c #933709",
"9. c #833209",
"0. c #863208",
"q. c #8E3509",
"w. c #7C2F08",
"e. c #8F3609",
"r. c #823107",
"t. c #903609",
"y. c #813109",
"u. c #83320A",
"i. c #7D3009",
"p. c #87340A",
"a. c #8D3408",
"s. c #8C3509",
"d. c #893307",
"f. c #8D3409",
"g. c #893309",
"h. c #8D360B",
"j. c #863109",
"k. c #88350B",
"l. c #88340A",
"z. c #893308",
"x. c #8D3509",
"c. c #8A3508",
"v. c #863108",
"b. c #903608",
"n. c #833107",
"m. c #91380B",
"M. c #883209",
"N. c #813008",
"B. c #6E2907",
"V. c #722A07",
"C. c #762C07",
"Z. c #863107",
"A. c #8C3408",
"S. c #7E2F07",
"D. c #843207",
"F. c #90370A",
"G. c #863309",
"H. c #843108",
"J. c #843208",
"K. c #732B08",
"L. c #873207",
"P. c #7C2E08",
"I. c #7F3007",
"U. c #91380A",
"Y. c #8C360A",
"T. c #83330C",
"R. c #803008",
"E. c #913508",
"W. c #8B3409",
"Q. c #8B3508",
"!. c #823006",
"~. c #94380A",
"^. c #803108",
"/. c #8E370B",
"(. c #803109",
"). c #8F3508",
"_. c #8A340A",
"`. c #7A2E08",
"'. c #7B2E07",
"]. c #7C2E07",
"[. c white",
/* pixels */
"  . X o O + @ # $ % & * = - ; : ",
"> , < 1 2 3 4 5 6 7 8 9 < 0 O q ",
"w e r t y 3 @ u i %   p a s d f ",
"w O g h j k > l z x c v b n m M ",
"N B % V C Z A S D F G H H J K L ",
"P I U Y T R E W Q ! ~ ^ R / ( ) ",
"_ ` ' K ] + [ + { } o |  ...X.H ",
"o.O.s F +.@.#.H $.%.&.` Z c ` *.",
"=.X.-.;.:.>.,.X.m M <.1.v 2.3.b ",
"4.X.-.  1.7 5.6.K 7.8.9.0.q.w.Z ",
"e.r.t.  y.Z u.i.p.4.a.s.d.f.r.g.",
"t.r.=.h.< j.k.Z l.t.z.x.r G c.v.",
"b.n.M m.M.3 S Z l.c r N.B.V.C.Z.",
"A.S.D.F.>.p.= u.G.8.%.y.H.J.K.L.",
"f.P.I.U.G.@.Y.T.R.E.s.: W.Q.w.!.",
": T b ~.^.u./.T.(.)._.`.W.).'.]."
};
