/* XPM */
static char *rsz_download1676282897[] = {
/* columns rows colors chars-per-pixel */
"16 16 228 2 ",
"   c #150000",
".  c #160000",
"X  c #170000",
"o  c #180000",
"O  c #190000",
"+  c #1A0000",
"@  c #1B0100",
"#  c #1D0000",
"$  c #1C0100",
"%  c #1D0300",
"&  c #1F0500",
"*  c #1C0600",
"=  c #1F0700",
"-  c #200500",
";  c #210700",
":  c #220800",
">  c #230900",
",  c #230A00",
"<  c #240900",
"1  c #250A00",
"2  c #270A00",
"3  c #260B00",
"4  c #250F00",
"5  c #271100",
"6  c #2A1000",
"7  c #2D1100",
"8  c #2C1200",
"9  c #2E1200",
"0  c #2F1500",
"q  c #2F1700",
"w  c #301400",
"e  c #331500",
"r  c #311900",
"t  c #341A01",
"y  c #371B05",
"u  c #361E06",
"i  c #3D1F03",
"p  c #391D05",
"a  c #381E05",
"s  c #391D07",
"d  c #3B1F09",
"f  c #3F2204",
"g  c #3E2306",
"h  c #3A2009",
"j  c #382308",
"k  c #3B2309",
"l  c #3D210B",
"z  c #3E220A",
"x  c #3D230C",
"c  c #3E220C",
"v  c #3F230D",
"b  c #3E260E",
"n  c #41270E",
"m  c #40260F",
"M  c #42260E",
"N  c #45280A",
"B  c #482A0E",
"V  c #412710",
"C  c #422811",
"Z  c #452911",
"A  c #452913",
"S  c #412C11",
"D  c #442C12",
"F  c #452D15",
"G  c #4B2E10",
"H  c #4C2E12",
"J  c #492F18",
"K  c #4A3311",
"L  c #4C3513",
"P  c #4C3114",
"I  c #4D3215",
"U  c #4E3316",
"Y  c #4E3717",
"T  c #473119",
"R  c #4C3018",
"E  c #4E3018",
"W  c #4E321A",
"Q  c #4F331B",
"!  c #4E341B",
"~  c #4D351D",
"^  c #4E391E",
"/  c #513416",
"(  c #523418",
")  c #533618",
"_  c #50361D",
"`  c #52361E",
"'  c #513A1A",
"]  c #55381A",
"[  c #583B1D",
"{  c #4E3820",
"}  c #513720",
"|  c #533B21",
" . c #543820",
".. c #533E23",
"X. c #573F27",
"o. c #5B3E20",
"O. c #583D28",
"+. c #574521",
"@. c #564126",
"#. c #594723",
"$. c #584026",
"%. c #5B412A",
"&. c #5E422A",
"*. c #5C4728",
"=. c #5C442A",
"-. c #5F4829",
";. c #5E4531",
":. c #5F4932",
">. c #60462D",
",. c #66492B",
"<. c #674A2C",
"1. c #604532",
"2. c #624734",
"3. c #624933",
"4. c #634A36",
"5. c #644934",
"6. c #654A35",
"7. c #654A37",
"8. c #654A39",
"9. c #674A38",
"0. c #684F3B",
"q. c #645130",
"w. c #675030",
"e. c #6E5133",
"r. c #6A5037",
"t. c #6F5437",
"y. c #695139",
"u. c #6B513A",
"i. c #6D5338",
"p. c #6F533B",
"a. c #6B563B",
"s. c #6E513F",
"d. c #6C533F",
"f. c #6C573C",
"g. c #6F543F",
"h. c #6C563F",
"j. c #6F5838",
"k. c #735539",
"l. c #70553A",
"z. c #70543C",
"x. c #71573C",
"c. c #70563D",
"v. c #71573E",
"b. c #72563E",
"n. c #725B3C",
"m. c #755A3D",
"M. c #785A3E",
"N. c #6E5340",
"B. c #715740",
"V. c #745747",
"C. c #715842",
"Z. c #775941",
"A. c #765A42",
"S. c #765C41",
"D. c #745946",
"F. c #765B46",
"G. c #775D46",
"H. c #775F47",
"J. c #795B43",
"K. c #785D40",
"L. c #7A5F44",
"P. c #7B5F47",
"I. c #755848",
"U. c #785D48",
"Y. c #7B5F4A",
"T. c #7A5F4E",
"R. c #7D6040",
"E. c #7F6145",
"W. c #7B614A",
"Q. c #7A624A",
"!. c #7C6048",
"~. c #7C6249",
"^. c #7B6649",
"/. c #7E6748",
"(. c #7C674A",
"). c #7D614C",
"_. c #7E624D",
"`. c #7E614F",
"'. c #7D654D",
"]. c #7F654C",
"[. c #7C6948",
"{. c #7E694E",
"}. c #7F6451",
"|. c #83674F",
" X c #80694A",
".X c #866949",
"XX c #836E4F",
"oX c #886B4B",
"OX c #836853",
"+X c #866850",
"@X c #866A55",
"#X c #856A57",
"$X c #876B56",
"%X c #866E54",
"&X c #876C57",
"*X c #896F54",
"=X c #8A6E59",
"-X c #896E5B",
";X c #8B6F5A",
":X c #8B6E5C",
">X c #857051",
",X c #857251",
"<X c #8D7050",
"1X c #897157",
"2X c #8A7258",
"3X c #89705A",
"4X c #8A755A",
"5X c #8B725C",
"6X c #8C775C",
"7X c #8F745F",
"8X c #947863",
"9X c #917C61",
"0X c #947F60",
"qX c #957A65",
"wX c #958261",
"eX c #9E8767",
"rX c #9A856A",
"tX c #A79071",
"yX c #A89172",
"uX c #B49D7E",
"iX c #B7A283",
"pX c #BAA786",
"aX c #C2AB8B",
"sX c #C0AB8C",
"dX c #C6B192",
"fX c #C9B293",
"gX c #D0BB9C",
"hX c #DAC7A6",
/* pixels */
"#.,XXX6Xu > < O O < X < 2X Xw.L ",
"wXhXdXrXX.B.N.}.).D.D.%.1XfXaXj.",
"0XgX^.j y.g.`.P.}.`.U.B._ S.uX[.",
"f.4XS r m d m l 6 Z 9 a 9 ! c.$.",
"5 { Q.j ).>.( P.+XJ c.Z.z Q.%.; ",
"* f.5XF r.n.I m.k.B z.z.d @X6.< ",
"; ;.7XV Z g ,./ N e./ e A 8X9.2 ",
"% N.#XC P.m.o.L.oX) M.J.m =XD.O ",
"* 0.:Xl |.t.) .X*X[ k.M.s :XV.% ",
"% 4.qXb m U ,.G N <.i E Z @X0.% ",
"4 :.2Xb c.t.U K.R.H L.` s =X9.% ",
"X J U.D c.c.W c.Z.E ` >.s J.} ; ",
"{.qX@.* 0 6 l 0 9 l y 0 t m  X%.",
">XpX(.{ '.OX*X:X:X@X&Xy.m *XtXn.",
"(.pXiXf.~ 3.8.2.8.;.O.J %XtXeX' ",
"+.q.*.@.w O * X X X X X [ >.Y K "
};
