/* XPM */
static char *rsz_1wall1676280773[] = {
/* columns rows colors chars-per-pixel */
"16 16 200 2 ",
"   c #274E5D",
".  c #254957",
"X  c #274E5C",
"o  c #285160",
"O  c #244E5F",
"+  c #1E4554",
"@  c #183A48",
"#  c #224958",
"$  c #214C5C",
"%  c #244F5F",
"&  c #264F60",
"*  c #264F5F",
"=  c #2A4E5B",
"-  c #2C505E",
";  c #1E414F",
":  c #2F5867",
">  c #244A57",
",  c #234958",
"<  c #234A59",
"1  c #234C5C",
"2  c #234F5F",
"3  c #1E4656",
"4  c #1D4453",
"5  c #214E5F",
"6  c #254F5F",
"7  c #234E5D",
"8  c #254D5B",
"9  c #2A4C59",
"0  c #173C4B",
"q  c #2C5564",
"w  c #254D5C",
"e  c #264F5E",
"r  c #2A5362",
"t  c #2A505E",
"y  c #25505F",
"u  c #224A58",
"i  c #1E4453",
"p  c #26505F",
"a  c #254E5D",
"s  c #2B4F5C",
"d  c #28505F",
"f  c #183D4D",
"g  c #1F4554",
"h  c #1B3C49",
"j  c #1B3F4D",
"k  c #1D3E4B",
"l  c #1C3B47",
"z  c #1C3B48",
"x  c #1C3D4A",
"c  c #183B48",
"v  c #1A3A47",
"b  c #193C49",
"n  c #193946",
"m  c #1D3D4A",
"M  c #1D3C4A",
"N  c #1B3F4E",
"B  c #10323F",
"V  c #234B5B",
"C  c #234A58",
"Z  c #234654",
"A  c #163744",
"S  c #264B59",
"D  c #284D5A",
"F  c #244A58",
"G  c #224A57",
"H  c #244856",
"J  c #204554",
"K  c #143745",
"L  c #244E5D",
"P  c #234D5D",
"I  c #254C5C",
"U  c #274D5C",
"Y  c #2E5362",
"T  c #265160",
"R  c #2B505E",
"E  c #295160",
"W  c #1D404D",
"Q  c #33515C",
"!  c #2B4F5B",
"~  c #274F5D",
"^  c #294D5A",
"/  c #284D5B",
"(  c #204755",
")  c #1B414F",
"_  c #275262",
"`  c #254C5B",
"'  c #2C5260",
"]  c #284F5E",
"[  c #2B515F",
"{  c #275160",
"}  c #1F3F4B",
"|  c #2F5562",
" . c #285363",
".. c #2D5360",
"X. c #284E5D",
"o. c #214755",
"O. c #234C5B",
"+. c #244E5E",
"@. c #143441",
"#. c #153441",
"$. c #173744",
"%. c #183542",
"&. c #14323E",
"*. c #193C4A",
"=. c #193744",
"-. c #163440",
";. c #173541",
":. c #193845",
">. c #153341",
",. c #10303D",
"<. c #153846",
"1. c #143643",
"2. c #153643",
"3. c #153644",
"4. c #1D414F",
"5. c #12313D",
"6. c #234552",
"7. c #224754",
"8. c #224957",
"9. c #244B59",
"0. c #1A3B49",
"q. c #173947",
"w. c #245061",
"e. c #234857",
"r. c #234B5A",
"t. c #1F4757",
"y. c #204452",
"u. c #234855",
"i. c #204857",
"p. c #173946",
"a. c #2A515F",
"s. c #1D4251",
"d. c #1A3D4C",
"f. c #275161",
"g. c #254C5A",
"h. c #264E5D",
"j. c #244D5C",
"k. c #1F4656",
"l. c #163745",
"z. c #224D5D",
"x. c #295161",
"c. c #255162",
"v. c #1F4452",
"b. c #1C3C49",
"n. c #2A5260",
"m. c #284F5D",
"M. c #264E5E",
"N. c #215061",
"B. c #123341",
"V. c #0E2C38",
"C. c #112F3C",
"Z. c #14313E",
"A. c #11303D",
"S. c #143340",
"D. c #16303C",
"F. c #13323F",
"G. c #183947",
"H. c #163746",
"J. c #163947",
"K. c #12313E",
"L. c #153745",
"P. c #225060",
"I. c #244C5B",
"U. c #244B5A",
"Y. c #1E4756",
"T. c #112D3A",
"R. c #274B59",
"E. c #254A58",
"W. c #264D5B",
"Q. c #254B59",
"!. c #193A48",
"~. c #133340",
"^. c #235061",
"/. c #234D5C",
"(. c #224B5B",
"). c #1D4554",
"_. c #294F5D",
"`. c #2A5261",
"'. c #214959",
"]. c #284C59",
"[. c #193E4C",
"{. c #275566",
"}. c #244F5E",
"|. c #1F4756",
" X c #12323F",
".X c #28515F",
"XX c #285261",
"oX c #224E5E",
"OX c #265060",
"+X c #255161",
"@X c #1A404E",
"#X c #193945",
"$X c #153541",
"%X c #183A47",
"&X c #0C2835",
"*X c #133240",
"=X c #112E3A",
"-X c #0F2A35",
";X c #173642",
":X c white",
/* pixels */
"  . X o O O + @ # $ % & * = - ; ",
": > , < 1 2 3 4 % 5 6 7 8 9   0 ",
"q w e r t y u i p a 2 2 t s d f ",
"g h j k l z x c k v b n m M N B ",
"o V C Z A S D F G H J K L P I U ",
"Y T R E W Q ! ~ ^ / ( ) _ ` = ' ",
"6 ] [ { } |  ...t X.o.j  .O.w +.",
"@.#.$.%.&.*.=.-.;.:.>.,.<.1.2.3.",
"4.5.o.6.7.8.9.0.q.w.e.r.# t.y.u.",
"i.p.6 p p a. .s.d.f.g.X h.j.S P ",
"k.l.e z.  x.c.v.b.n.1   % m.M.N.",
"B.V.l.C.Z.A.S.D.F.G.H.J.$.-.K.L.",
"P.2 I.U.Y.T.R.a 2 E.W.g.Q.!.~.^.",
"/.(.i.V ).K._.a.`.'.# ].L [.2.{.",
"X 1 }.h.|. X.Xr XXoXP OX+X@X#Xr ",
"$X2.%Xv 3.&XA #.-.#.K.*X@.=X-X;X"
};
