/* XPM */
static char *rsz_wall128x1281675248777[] = {
/* columns rows colors chars-per-pixel */
"64 64 74 1 ",
"  c #5A5A5A",
". c gray35",
"X c #5B5B5B",
"o c #6D6D6D",
"O c #6F6F6F",
"+ c gray43",
"@ c #4C4C4C",
"# c gray44",
"$ c #646464",
"% c #585858",
"& c #5D5D5D",
"* c #6C6C6C",
"= c #565555",
"- c #5A5B5B",
"; c gray42",
": c #555353",
"> c #565454",
", c #585757",
"< c gray36",
"1 c #555454",
"2 c gray34",
"3 c gray30",
"4 c #6A6A6A",
"5 c #595A5A",
"6 c #494949",
"7 c #524E4E",
"8 c #494848",
"9 c #504C4C",
"0 c #504D4D",
"q c #545353",
"w c #484848",
"e c #5A5959",
"r c #595858",
"t c #514D4D",
"y c #575656",
"u c #545252",
"i c #4F4C4C",
"p c #4F4B4B",
"a c #585959",
"s c gray29",
"d c #494A4A",
"f c #4B4B4B",
"g c #707171",
"h c #575858",
"j c #535151",
"k c DimGray",
"l c #4E4E4E",
"z c gray37",
"x c #535050",
"c c #565656",
"v c #686868",
"b c #676767",
"n c #575555",
"m c #4B4949",
"M c #505050",
"N c #565353",
"B c #4A4747",
"V c #4A4848",
"C c #505151",
"Z c gray31",
"A c #5E5C5C",
"S c #4E4A4A",
"D c #545151",
"F c #514E4E",
"G c #5E5D5D",
"H c #494646",
"J c #474545",
"K c #484545",
"L c #575454",
"P c #555252",
"I c #524F4F",
"U c #5B5C5C",
"Y c #515151",
"T c white",
/* pixels */
"      .XoO++++++++Oo@oO++++++++++++#$%   ........               ",
"      . XXXXXXXXXX&*@*&XXXXXXXXXXXXX  .=.-       .              ",
"       ...........X;@;X.............. .:>:,%%%%%. .             ",
"                 .<;@;<.             . -.=:>11>:2 .             ",
"                 .X;@;X.              ..         .              ",
"                 .X*3*X.                ......... .             ",
"                 .X4@4X.                                        ",
"                 . 567. .                                       ",
"                 . %89. .                                       ",
"                 . .60. .                                       ",
"                 . %60. .                                       ",
"                 . .60. .                                       ",
"         ........5.q80. ................                        ",
".........         .9w0e                 ........................",
"         e........rtw9y ...............e                        ",
"%%%%%%%%.u900000000iwp90099999999999999ua%%%%%%%%%%%%%%%%%%%%%%%",
"6ss66666d6866666666686686sssssssssssss86fffffffffffffffffs666666",
"%y2.%%%%%%aaaaaaaaa%.%a%5;**********;gh2#;**************;.%%%%%%",
"e=jyX                    XXXXXXXXXX<.k<lzXXXXXXXXXXXXXXXX       ",
".-rxr ..............................cv<3X.......................",
".. yxy .                            2v<3<.                      ",
"  . .r .                            2v<3<.                      ",
" e .  .                             2bX3<.                      ",
"    ..                             . nmMX.                      ",
"                                   .-NBMX.                      ",
"                                   . >VMX.                      ",
"                                   . >BMX.                      ",
"                                   . >BMX.                      ",
"                            ........ >BMX.                      ",
"............................       .->BMX.......................",
"                            e....... >VC<                       ",
"%%%%%%%%%%%%%%%%%%%%%%%%%%%.up9999999tVZ.%%%%%%%%%%%a%aaaaaaaaaa",
"66666666666sfffffffffffffs6ffsssssssssssfffffffffffs866666666666",
"%%%%%%%%%%%.;***********o4fko********************;+ASt0000000000",
"            XXXXXXXXXXXX&of <XXXXXXXXXXXXXXXXXXXXX< ............",
"........................X*f2........................            ",
"        ....        .  .X*f%                        ............",
"       .  - ... ..  -=y5X*f% .                                  ",
"      . .y:%-  . -.r=x..X*f% .                                  ",
"      . 1=yx:,.X2>D:y  .X;f% .                                  ",
"      . .   =:>DD,r  . .<+f% .                                  ",
"       . ... -.u:, ... . As% .                                  ",
"        .. ... -- .   . .S8a .                                  ",
"              .... .  . .t6% .                                  ",
"                 e..... .06a .                                  ",
"..................      .06% ...................................",
"                  ......r06.                                    ",
"aaaaaaaaaaaaaaa%.%F00000tiw2%%%%%%%%%%%%%%%%%%%%%%%%%%%%%%%%%%%%",
"666666666666666668wwwwwwww6ffffffffffffffffff66fffffffffffffffff",
"000000000000000000000000tSG+;**************;#22#;***************",
".......................... <XXXXXXXXXXXXXX<.4  4.<XXXXXXXXXXXXXX",
"                          .................cv rb2...............",
"..........................                 2v&Hn .              ",
"                            .   .. e   ..  2v&J>-.              ",
"                           . .%%  ..... -r.2v&KL .              ",
"                           . 2:>:=-   -.Pj,2v&K> .              ",
"                            .   ,:>%r>=j>  2b<K> .              ",
"                           . ...  %>FIy%U ..<YB> .              ",
"                                ..  .r>>:= .XMB> .              ",
"                                  ..  -.,:..XMB> .              ",
"                                   ....    .XMB> .              ",
"                                       .....XMB> .              ",
"                                           .XMB> .              ",
"                                           .XMB> .              "
};
